<?xml version="1.0" encoding="UTF-8"?><svg id="Layer_2" xmlns="http://www.w3.org/2000/svg" viewBox="0 0 71.35 80"><metadata><?xpacket begin="﻿" id="W5M0MpCehiHzreSzNTczkc9d"?>
<x:xmpmeta xmlns:x="adobe:ns:meta/" x:xmptk="Adobe XMP Core 7.1-c000 79.4d2f597, 2021/09/01-20:51:22        ">
   <rdf:RDF xmlns:rdf="http://www.w3.org/1999/02/22-rdf-syntax-ns#">
      <rdf:Description rdf:about=""
            xmlns:xmpMM="http://ns.adobe.com/xap/1.0/mm/"
            xmlns:stEvt="http://ns.adobe.com/xap/1.0/sType/ResourceEvent#"
            xmlns:xmp="http://ns.adobe.com/xap/1.0/">
         <xmpMM:PreservedFileName>Asset 979.svg</xmpMM:PreservedFileName>
         <xmpMM:InstanceID>xmp.iid:94b32dca-893e-2c4b-88e2-57280925f1f1</xmpMM:InstanceID>
         <xmpMM:DocumentID>xmp.did:94b32dca-893e-2c4b-88e2-57280925f1f1</xmpMM:DocumentID>
         <xmpMM:OriginalDocumentID>xmp.did:94b32dca-893e-2c4b-88e2-57280925f1f1</xmpMM:OriginalDocumentID>
         <xmpMM:History>
            <rdf:Seq>
               <rdf:li>
                  <rdf:Description>
                     <stEvt:action>saved</stEvt:action>
                     <stEvt:instanceID>xmp.iid:94b32dca-893e-2c4b-88e2-57280925f1f1</stEvt:instanceID>
                     <stEvt:when>2022-07-05T17:40:12+05:30</stEvt:when>
                     <stEvt:softwareAgent>Adobe Bridge 2022 (Windows)</stEvt:softwareAgent>
                     <stEvt:changed>/metadata</stEvt:changed>
                  </rdf:Description>
               </rdf:li>
            </rdf:Seq>
         </xmpMM:History>
         <xmp:MetadataDate>2022-07-05T17:40:12+05:30</xmp:MetadataDate>
      </rdf:Description>
   </rdf:RDF>
</x:xmpmeta>
                                                                                                    
                                                                                                    
                                                                                                    
                                                                                                    
                                                                                                    
                                                                                                    
                                                                                                    
                                                                                                    
                                                                                                    
                                                                                                    
                                                                                                    
                                                                                                    
                                                                                                    
                                                                                                    
                                                                                                    
                                                                                                    
                                                                                                    
                                                                                                    
                                                                                                    
                                                                                                    
                           
<?xpacket end="w"?></metadata>
<defs><style>.cls-1{fill:#fff;}</style></defs><g id="Icons"><path class="cls-1" d="M70.87,45.97l-7.94-15.51c-.26-8.1-3.56-15.68-9.35-21.39C47.65,3.22,39.8,0,31.47,0c-.14,0-.27,0-.41,0C22.83,.11,15.1,3.35,9.26,9.16,3.33,15.06,.04,22.93,0,31.32H0c-.03,5.55,1.41,11.01,4.16,15.8,2.44,4.25,5.86,7.89,9.94,10.6v22.29H46.93v-8.91h7.77c4.66,0,8.45-3.79,8.45-8.45v-10.16l3.96-.11c1.51-.05,2.87-.87,3.63-2.17,.77-1.3,.81-2.89,.12-4.23ZM24.71,14.36l4.69-4.69c.05-.06,.11-.11,.17-.16,.03-.02,.05-.04,.08-.06,.03-.03,.07-.05,.1-.07,.03-.02,.07-.04,.1-.06,.03-.02,.06-.04,.09-.06,.04-.02,.07-.04,.11-.05,.03-.02,.07-.03,.1-.05,.04-.01,.07-.03,.11-.04,.04-.01,.07-.03,.11-.04,.04-.01,.07-.02,.11-.03,.04,0,.07-.02,.11-.03,.04,0,.09-.01,.13-.02,.03,0,.06-.01,.1-.01,.15-.02,.31-.02,.46,0,.03,0,.07,0,.1,.01,.04,0,.09,.01,.13,.02,.04,0,.08,.02,.11,.03,.04,0,.07,.02,.11,.03,.04,.01,.07,.02,.11,.04,.04,.01,.07,.02,.11,.04,.03,.01,.07,.03,.1,.05,.04,.02,.07,.03,.11,.05,.03,.02,.06,.04,.09,.06,.03,.02,.07,.04,.1,.06,.04,.02,.07,.05,.1,.07,.03,.02,.06,.04,.08,.06,.06,.05,.12,.1,.17,.16l4.69,4.69c.91,.92,.91,2.4,0,3.31-.46,.46-1.06,.69-1.66,.69s-1.2-.23-1.66-.69l-.69-.69v6.06c0,1.29-1.05,2.34-2.34,2.34s-2.34-1.05-2.34-2.34v-6.06l-.69,.69c-.92,.91-2.4,.91-3.31,0-.91-.92-.91-2.4,0-3.31Zm-6.06,18.75c.92,.91,.92,2.4,0,3.31-.46,.46-1.06,.69-1.66,.69s-1.2-.23-1.66-.69l-4.69-4.69c-.06-.05-.11-.11-.16-.17-.02-.03-.04-.05-.06-.08-.03-.03-.05-.07-.08-.1-.02-.03-.04-.07-.06-.1-.02-.03-.04-.06-.06-.1-.02-.03-.03-.07-.05-.1-.02-.03-.03-.07-.05-.1-.01-.03-.03-.07-.04-.1-.01-.04-.03-.07-.04-.11-.01-.04-.02-.07-.03-.1,0-.04-.02-.08-.03-.12,0-.04-.01-.08-.02-.12,0-.04-.01-.07-.02-.11,0-.08-.01-.15-.01-.22h0c0-.09,0-.16,.01-.24,0-.04,.01-.07,.02-.1,0-.04,.01-.08,.02-.12s.02-.08,.03-.12c0-.04,.02-.07,.03-.1,.01-.04,.03-.08,.04-.11,.01-.04,.02-.07,.04-.1,.01-.04,.03-.07,.05-.1,.02-.04,.03-.07,.05-.1,.02-.03,.04-.06,.06-.1,.02-.03,.04-.07,.06-.1,.02-.04,.05-.07,.08-.1,.02-.03,.04-.05,.06-.08,.05-.06,.1-.12,.16-.17l4.69-4.69c.91-.92,2.4-.92,3.31,0,.92,.92,.92,2.4,0,3.31l-.69,.69h6.06c1.29,0,2.34,1.05,2.34,2.34s-1.05,2.34-2.34,2.34h-6.06l.69,.69Zm18.75,12.69l-4.69,4.69c-.06,.05-.11,.11-.17,.16-.03,.02-.05,.04-.08,.06-.03,.02-.07,.05-.1,.07-.03,.02-.07,.04-.1,.06-.03,.02-.06,.04-.09,.06-.03,.02-.07,.03-.11,.05-.03,.02-.07,.03-.1,.05-.03,.01-.07,.03-.11,.04-.04,.01-.07,.03-.11,.04-.04,.01-.07,.02-.11,.03-.04,0-.08,.02-.12,.03-.04,0-.08,.01-.12,.02-.03,0-.07,.01-.1,.01-.08,0-.15,.01-.23,.01s-.15,0-.23-.01c-.03,0-.07-.01-.1-.01-.04,0-.08-.01-.12-.02-.04,0-.08-.02-.12-.03-.04,0-.07-.02-.11-.03-.04-.01-.07-.03-.11-.04-.04-.01-.07-.02-.11-.04-.03-.02-.07-.03-.1-.05-.04-.02-.07-.03-.11-.05-.03-.02-.06-.04-.09-.06-.03-.02-.07-.04-.1-.06-.04-.02-.07-.05-.1-.07-.03-.02-.06-.04-.08-.06-.06-.05-.12-.1-.17-.16l-4.69-4.69c-.92-.92-.92-2.4,0-3.31,.91-.92,2.4-.92,3.31,0l.69,.69v-6.06c0-1.29,1.05-2.34,2.34-2.34s2.34,1.05,2.34,2.34v6.06l.69-.69c.91-.92,2.4-.92,3.31,0,.91,.92,.91,2.4,0,3.31Zm14.73-15.48s0,.06-.01,.1c0,.04-.01,.09-.02,.13,0,.04-.02,.08-.03,.11,0,.04-.02,.07-.03,.11-.01,.04-.03,.07-.04,.11-.01,.04-.02,.07-.04,.11-.01,.03-.03,.07-.05,.1-.02,.04-.03,.07-.05,.11-.02,.03-.04,.06-.06,.09-.02,.03-.04,.07-.06,.1-.02,.03-.05,.07-.08,.1-.02,.03-.04,.06-.06,.08-.05,.06-.1,.12-.16,.17l-4.69,4.69c-.46,.46-1.06,.69-1.66,.69s-1.2-.23-1.66-.69c-.92-.92-.92-2.4,0-3.31l.69-.69h-6.06c-1.29,0-2.34-1.05-2.34-2.34s1.05-2.34,2.34-2.34h6.06l-.69-.69c-.92-.92-.92-2.4,0-3.31,.91-.92,2.4-.92,3.31,0l4.69,4.69c.05,.05,.11,.11,.16,.17,.02,.03,.04,.05,.06,.08,.03,.03,.05,.07,.08,.1,.02,.03,.04,.07,.06,.1,.02,.03,.04,.06,.06,.09,.02,.03,.04,.07,.05,.11,.02,.03,.03,.07,.05,.1,.01,.03,.03,.07,.04,.11,.01,.04,.03,.07,.04,.11,.01,.04,.02,.07,.03,.11,0,.04,.02,.08,.03,.11,0,.04,.01,.09,.02,.13,0,.03,.01,.06,.01,.1,.02,.15,.02,.31,0,.46Z"/></g></svg>