<?xml version="1.0" encoding="UTF-8"?><svg id="Layer_2" xmlns="http://www.w3.org/2000/svg" viewBox="0 0 71.35 80"><metadata><?xpacket begin="﻿" id="W5M0MpCehiHzreSzNTczkc9d"?>
<x:xmpmeta xmlns:x="adobe:ns:meta/" x:xmptk="Adobe XMP Core 7.1-c000 79.4d2f597, 2021/09/01-20:51:22        ">
   <rdf:RDF xmlns:rdf="http://www.w3.org/1999/02/22-rdf-syntax-ns#">
      <rdf:Description rdf:about=""
            xmlns:xmpMM="http://ns.adobe.com/xap/1.0/mm/"
            xmlns:stEvt="http://ns.adobe.com/xap/1.0/sType/ResourceEvent#"
            xmlns:xmp="http://ns.adobe.com/xap/1.0/">
         <xmpMM:PreservedFileName>Asset 907.svg</xmpMM:PreservedFileName>
         <xmpMM:InstanceID>xmp.iid:a26bb21c-f979-2243-9c9d-36ed6e0b8f51</xmpMM:InstanceID>
         <xmpMM:DocumentID>xmp.did:a26bb21c-f979-2243-9c9d-36ed6e0b8f51</xmpMM:DocumentID>
         <xmpMM:OriginalDocumentID>xmp.did:a26bb21c-f979-2243-9c9d-36ed6e0b8f51</xmpMM:OriginalDocumentID>
         <xmpMM:History>
            <rdf:Seq>
               <rdf:li>
                  <rdf:Description>
                     <stEvt:action>saved</stEvt:action>
                     <stEvt:instanceID>xmp.iid:a26bb21c-f979-2243-9c9d-36ed6e0b8f51</stEvt:instanceID>
                     <stEvt:when>2022-07-05T17:16:25+05:30</stEvt:when>
                     <stEvt:softwareAgent>Adobe Bridge 2022 (Windows)</stEvt:softwareAgent>
                     <stEvt:changed>/metadata</stEvt:changed>
                  </rdf:Description>
               </rdf:li>
            </rdf:Seq>
         </xmpMM:History>
         <xmp:MetadataDate>2022-07-05T17:16:25+05:30</xmp:MetadataDate>
      </rdf:Description>
   </rdf:RDF>
</x:xmpmeta>
                                                                                                    
                                                                                                    
                                                                                                    
                                                                                                    
                                                                                                    
                                                                                                    
                                                                                                    
                                                                                                    
                                                                                                    
                                                                                                    
                                                                                                    
                                                                                                    
                                                                                                    
                                                                                                    
                                                                                                    
                                                                                                    
                                                                                                    
                                                                                                    
                                                                                                    
                                                                                                    
                           
<?xpacket end="w"?></metadata>
<defs><style>.cls-1{fill:#fff;}</style></defs><g id="Icons"><g><path class="cls-1" d="M70.87,45.97l-7.94-15.51c-.26-8.1-3.56-15.68-9.35-21.39C47.65,3.22,39.8,0,31.47,0c-.14,0-.27,0-.41,0C22.83,.11,15.1,3.35,9.26,9.16,3.33,15.06,.04,22.93,0,31.32h0c-.03,5.55,1.41,11.01,4.16,15.8,2.44,4.25,5.86,7.89,9.94,10.6v22.29H46.93v-8.91h7.77c4.66,0,8.45-3.79,8.45-8.45v-10.16l3.96-.11c1.51-.05,2.87-.87,3.63-2.17,.77-1.3,.81-2.89,.12-4.23Zm-23.41-11.34c0,9.04-7.36,16.4-16.4,16.4s-16.4-7.36-16.4-16.4v-9.37c0-1.29,1.05-2.34,2.34-2.34h2.34v-2.34c0-6.46,5.26-11.72,11.72-11.72s11.72,5.26,11.72,11.72v2.34h2.34c1.29,0,2.34,1.05,2.34,2.34v9.37Z"/><path class="cls-1" d="M31.06,13.54c-3.88,0-7.03,3.15-7.03,7.03v2.34h14.06v-2.34c0-3.88-3.15-7.03-7.03-7.03Z"/><path class="cls-1" d="M31.06,32.28c-1.29,0-2.34,1.05-2.34,2.34v4.69c0,1.29,1.05,2.34,2.34,2.34s2.34-1.05,2.34-2.34v-4.69c0-1.29-1.05-2.34-2.34-2.34Z"/></g></g></svg>