<?xml version="1.0" encoding="UTF-8"?><svg id="Layer_2" xmlns="http://www.w3.org/2000/svg" viewBox="0 0 71.35 80"><metadata><?xpacket begin="﻿" id="W5M0MpCehiHzreSzNTczkc9d"?>
<x:xmpmeta xmlns:x="adobe:ns:meta/" x:xmptk="Adobe XMP Core 7.1-c000 79.4d2f597, 2021/09/01-20:51:22        ">
   <rdf:RDF xmlns:rdf="http://www.w3.org/1999/02/22-rdf-syntax-ns#">
      <rdf:Description rdf:about=""
            xmlns:xmpMM="http://ns.adobe.com/xap/1.0/mm/"
            xmlns:stEvt="http://ns.adobe.com/xap/1.0/sType/ResourceEvent#"
            xmlns:xmp="http://ns.adobe.com/xap/1.0/">
         <xmpMM:PreservedFileName>Asset 1045.svg</xmpMM:PreservedFileName>
         <xmpMM:InstanceID>xmp.iid:0b4dee0c-51f7-5340-9b4e-51a733b74077</xmpMM:InstanceID>
         <xmpMM:DocumentID>xmp.did:0b4dee0c-51f7-5340-9b4e-51a733b74077</xmpMM:DocumentID>
         <xmpMM:OriginalDocumentID>xmp.did:0b4dee0c-51f7-5340-9b4e-51a733b74077</xmpMM:OriginalDocumentID>
         <xmpMM:History>
            <rdf:Seq>
               <rdf:li>
                  <rdf:Description>
                     <stEvt:action>saved</stEvt:action>
                     <stEvt:instanceID>xmp.iid:0b4dee0c-51f7-5340-9b4e-51a733b74077</stEvt:instanceID>
                     <stEvt:when>2022-07-05T17:40:44+05:30</stEvt:when>
                     <stEvt:softwareAgent>Adobe Bridge 2022 (Windows)</stEvt:softwareAgent>
                     <stEvt:changed>/metadata</stEvt:changed>
                  </rdf:Description>
               </rdf:li>
            </rdf:Seq>
         </xmpMM:History>
         <xmp:MetadataDate>2022-07-05T17:40:44+05:30</xmp:MetadataDate>
      </rdf:Description>
   </rdf:RDF>
</x:xmpmeta>
                                                                                                    
                                                                                                    
                                                                                                    
                                                                                                    
                                                                                                    
                                                                                                    
                                                                                                    
                                                                                                    
                                                                                                    
                                                                                                    
                                                                                                    
                                                                                                    
                                                                                                    
                                                                                                    
                                                                                                    
                                                                                                    
                                                                                                    
                                                                                                    
                                                                                                    
                                                                                                    
                           
<?xpacket end="w"?></metadata>
<defs><style>.cls-1{fill:#fff;}</style></defs><g id="Icons"><path class="cls-1" d="M70.87,45.97l-7.94-15.51c-.26-8.1-3.56-15.68-9.35-21.39C47.65,3.22,39.8,0,31.47,0c-.14,0-.27,0-.41,0C22.83,.11,15.1,3.35,9.26,9.16,3.33,15.06,.04,22.93,0,31.32c-.03,5.55,1.41,11.01,4.16,15.8,2.44,4.25,5.86,7.89,9.94,10.6v22.29H46.93v-8.91h7.77c4.66,0,8.45-3.79,8.45-8.45v-10.16l3.96-.11c1.51-.05,2.87-.87,3.63-2.17s.81-2.88,.12-4.23Zm-26.22-14.39l-14.06,18.75c-.46,.61-1.16,.94-1.88,.94-.37,0-.74-.09-1.09-.27-1.02-.53-1.5-1.73-1.14-2.82l4.12-12.36-12.57-8.38c-.58-.39-.96-1.02-1.03-1.72-.07-.7,.18-1.39,.67-1.89l14.06-14.06c.81-.81,2.09-.92,3.03-.24,.93,.67,1.24,1.92,.73,2.95l-3.76,7.52,12.34,8.23c.54,.36,.9,.92,1.01,1.55,.11,.63-.05,1.29-.43,1.8Z"/></g></svg>