<?xml version="1.0" encoding="UTF-8"?><svg id="Layer_2" xmlns="http://www.w3.org/2000/svg" viewBox="0 0 70.89 80"><defs><style>.cls-1{fill:#fff;}</style></defs><g id="Icons"><path class="cls-1" d="M67.38,50.32c-1.63-.94-3.52-1.19-5.34-.7-1.03,.28-1.96,.78-2.74,1.45l-4.53-2.62c1.14-2.59,1.77-5.45,1.77-8.44s-.63-5.86-1.77-8.45c0,0,0,0,0,0l4.53-2.62c.79,.67,1.71,1.17,2.74,1.45,.61,.16,1.22,.24,1.83,.24,1.22,0,2.42-.32,3.5-.94,3.35-1.94,4.51-6.25,2.57-9.61-1.94-3.36-6.25-4.51-9.6-2.58h0c-2.64,1.53-3.91,4.53-3.39,7.37l-4.54,2.62s0,0,0,0c-3.4-4.61-8.64-7.79-14.63-8.45v-5.38c2.73-.96,4.69-3.56,4.69-6.62,0-3.89-3.14-7.03-7.03-7.03s-7.03,3.14-7.03,7.03c0,3.07,1.96,5.66,4.69,6.62v5.38c-5.99,.66-11.23,3.84-14.63,8.45,0,0,0,0,0,0l-4.54-2.62c.52-2.84-.74-5.84-3.39-7.37h0c-3.36-1.94-7.67-.78-9.6,2.58-1.94,3.36-.78,7.67,2.58,9.6,1.08,.62,2.28,.94,3.5,.94,.61,0,1.23-.08,1.83-.24,1.03-.28,1.96-.78,2.74-1.45l4.53,2.62s0,0,0,0c-1.14,2.59-1.77,5.45-1.77,8.45s.63,5.86,1.77,8.44l-4.53,2.62c-.79-.67-1.71-1.17-2.74-1.45-1.82-.49-3.71-.24-5.33,.7-3.35,1.94-4.51,6.25-2.58,9.61,1.3,2.25,3.67,3.51,6.1,3.51,1.19,0,2.4-.3,3.51-.94,2.64-1.53,3.91-4.53,3.39-7.37l4.53-2.62c3.4,4.62,8.64,7.8,14.64,8.46v5.38c-2.73,.96-4.69,3.56-4.69,6.63,0,3.89,3.14,7.03,7.03,7.03s7.03-3.14,7.03-7.03c0-3.07-1.96-5.66-4.69-6.63v-5.38c6-.66,11.24-3.84,14.64-8.46l4.53,2.62c-.52,2.84,.74,5.84,3.39,7.37,1.1,.64,2.31,.94,3.5,.94,2.43,0,4.8-1.26,6.1-3.52,1.94-3.36,.78-7.67-2.57-9.6Zm-19.37,4.49c-2.16,1.6-4.65,2.96-7.39,3.65-.93,.23-1.87,.4-2.83,.51-.77,.09-1.56,.13-2.34,.13s-1.57-.04-2.34-.13c-.96-.11-1.9-.28-2.83-.51-2.74-.69-5.23-2.05-7.39-3.65v-.42c0-6.92,5.63-12.56,12.56-12.56-3.94,0-7.14-3.19-7.14-7.14s3.2-7.14,7.14-7.14,7.14,3.2,7.14,7.14-3.2,7.14-7.14,7.14c6.93,0,12.56,5.64,12.56,12.56v.42Z"/></g></svg>