<?xml version="1.0" encoding="UTF-8"?><svg id="Layer_2" xmlns="http://www.w3.org/2000/svg" viewBox="0 0 80 70.32"><metadata><?xpacket begin="﻿" id="W5M0MpCehiHzreSzNTczkc9d"?>
<x:xmpmeta xmlns:x="adobe:ns:meta/" x:xmptk="Adobe XMP Core 7.1-c000 79.4d2f597, 2021/09/01-20:51:22        ">
   <rdf:RDF xmlns:rdf="http://www.w3.org/1999/02/22-rdf-syntax-ns#">
      <rdf:Description rdf:about=""
            xmlns:xmpMM="http://ns.adobe.com/xap/1.0/mm/"
            xmlns:stEvt="http://ns.adobe.com/xap/1.0/sType/ResourceEvent#"
            xmlns:xmp="http://ns.adobe.com/xap/1.0/">
         <xmpMM:PreservedFileName>Asset 2839.svg</xmpMM:PreservedFileName>
         <xmpMM:InstanceID>xmp.iid:d17c1710-5d2b-344a-af19-a490b06a1d21</xmpMM:InstanceID>
         <xmpMM:DocumentID>xmp.did:d17c1710-5d2b-344a-af19-a490b06a1d21</xmpMM:DocumentID>
         <xmpMM:OriginalDocumentID>xmp.did:d17c1710-5d2b-344a-af19-a490b06a1d21</xmpMM:OriginalDocumentID>
         <xmpMM:History>
            <rdf:Seq>
               <rdf:li>
                  <rdf:Description>
                     <stEvt:action>saved</stEvt:action>
                     <stEvt:instanceID>xmp.iid:d17c1710-5d2b-344a-af19-a490b06a1d21</stEvt:instanceID>
                     <stEvt:when>2022-07-05T18:05:26+05:30</stEvt:when>
                     <stEvt:softwareAgent>Adobe Bridge 2022 (Windows)</stEvt:softwareAgent>
                     <stEvt:changed>/metadata</stEvt:changed>
                  </rdf:Description>
               </rdf:li>
            </rdf:Seq>
         </xmpMM:History>
         <xmp:MetadataDate>2022-07-05T18:05:26+05:30</xmp:MetadataDate>
      </rdf:Description>
   </rdf:RDF>
</x:xmpmeta>
                                                                                                    
                                                                                                    
                                                                                                    
                                                                                                    
                                                                                                    
                                                                                                    
                                                                                                    
                                                                                                    
                                                                                                    
                                                                                                    
                                                                                                    
                                                                                                    
                                                                                                    
                                                                                                    
                                                                                                    
                                                                                                    
                                                                                                    
                                                                                                    
                                                                                                    
                                                                                                    
                           
<?xpacket end="w"?></metadata>
<defs><style>.cls-1{fill:#fff;}</style></defs><g id="Icons"><g><path class="cls-1" d="M0,67.97c0,1.3,1.05,2.35,2.35,2.35H77.66c1.29,0,2.34-1.05,2.34-2.35V18.07H0v49.9ZM52.41,34.47c-.92-.91-.92-2.39,0-3.31,.91-.92,2.4-.92,3.31,0l9.38,9.38c.91,.91,.91,2.39,0,3.31l-9.38,9.37c-.91,.92-2.4,.92-3.31,0-.92-.91-.92-2.39,0-3.31l7.72-7.72-7.72-7.72Zm-19.32,21.04l6.91-20.73,2.47-7.39c.4-1.23,1.72-1.9,2.96-1.48,1.23,.4,1.89,1.73,1.48,2.96l-6.91,20.73-2.46,7.4c-.41,1.22-1.73,1.89-2.97,1.48-1.22-.41-1.89-1.74-1.48-2.97Zm-18.18-14.97l9.37-9.38c.92-.92,2.4-.92,3.32,0,.91,.92,.91,2.4,0,3.31l-7.72,7.72,7.72,7.72c.91,.92,.91,2.4,0,3.31-.92,.92-2.4,.92-3.32,0l-9.37-9.37c-.92-.92-.92-2.4,0-3.31Z"/><path class="cls-1" d="M77.66,0H2.35C1.05,0,0,1.05,0,2.35V14.07H80V2.35c0-1.3-1.05-2.35-2.34-2.35Z"/></g></g></svg>