<?xml version="1.0" encoding="UTF-8"?><svg id="Layer_2" xmlns="http://www.w3.org/2000/svg" viewBox="0 0 79.99 79.99"><metadata><?xpacket begin="﻿" id="W5M0MpCehiHzreSzNTczkc9d"?>
<x:xmpmeta xmlns:x="adobe:ns:meta/" x:xmptk="Adobe XMP Core 7.1-c000 79.4d2f597, 2021/09/01-20:51:22        ">
   <rdf:RDF xmlns:rdf="http://www.w3.org/1999/02/22-rdf-syntax-ns#">
      <rdf:Description rdf:about=""
            xmlns:xmpMM="http://ns.adobe.com/xap/1.0/mm/"
            xmlns:stEvt="http://ns.adobe.com/xap/1.0/sType/ResourceEvent#"
            xmlns:xmp="http://ns.adobe.com/xap/1.0/">
         <xmpMM:PreservedFileName>Asset 2833.svg</xmpMM:PreservedFileName>
         <xmpMM:InstanceID>xmp.iid:118f482b-1aac-8f49-bd84-236ee2e118f7</xmpMM:InstanceID>
         <xmpMM:DocumentID>xmp.did:118f482b-1aac-8f49-bd84-236ee2e118f7</xmpMM:DocumentID>
         <xmpMM:OriginalDocumentID>xmp.did:118f482b-1aac-8f49-bd84-236ee2e118f7</xmpMM:OriginalDocumentID>
         <xmpMM:History>
            <rdf:Seq>
               <rdf:li>
                  <rdf:Description>
                     <stEvt:action>saved</stEvt:action>
                     <stEvt:instanceID>xmp.iid:118f482b-1aac-8f49-bd84-236ee2e118f7</stEvt:instanceID>
                     <stEvt:when>2022-07-05T18:05:26+05:30</stEvt:when>
                     <stEvt:softwareAgent>Adobe Bridge 2022 (Windows)</stEvt:softwareAgent>
                     <stEvt:changed>/metadata</stEvt:changed>
                  </rdf:Description>
               </rdf:li>
            </rdf:Seq>
         </xmpMM:History>
         <xmp:MetadataDate>2022-07-05T18:05:26+05:30</xmp:MetadataDate>
      </rdf:Description>
   </rdf:RDF>
</x:xmpmeta>
                                                                                                    
                                                                                                    
                                                                                                    
                                                                                                    
                                                                                                    
                                                                                                    
                                                                                                    
                                                                                                    
                                                                                                    
                                                                                                    
                                                                                                    
                                                                                                    
                                                                                                    
                                                                                                    
                                                                                                    
                                                                                                    
                                                                                                    
                                                                                                    
                                                                                                    
                                                                                                    
                           
<?xpacket end="w"?></metadata>
<defs><style>.cls-1{fill:#fff;}</style></defs><g id="Icons"><g><path class="cls-1" d="M4.01,17.4c4.3-4.33,11.29-4.33,15.6,0,.91,.92,2.4,.92,3.31,.01,.92-.91,.92-2.4,.01-3.31C16.79,7.92,6.82,7.92,.68,14.09c-.91,.92-.91,2.4,.01,3.31,.92,.91,2.4,.91,3.31-.01Z"/><path class="cls-1" d="M6.99,20.44c-.91,.92-.91,2.4,.01,3.31,.92,.91,2.4,.91,3.31-.01,.83-.83,2.16-.83,2.98,0,.91,.92,2.4,.92,3.31,.01,.92-.91,.92-2.4,.01-3.31-2.66-2.68-6.97-2.68-9.63,0Z"/><path class="cls-1" d="M77.64,37.65h-7.11v-7.03c0-1.29-1.05-2.34-2.34-2.34s-2.34,1.05-2.34,2.34v7.03h-7.11c-1.3,0-2.35,1.05-2.35,2.34v35.31h-4.68V30.78c0-1.3-1.05-2.35-2.34-2.35h-7.03v-7.18c0-1.29-1.05-2.34-2.34-2.34s-2.34,1.05-2.34,2.34v7.18h-7.03c-1.29,0-2.34,1.05-2.34,2.35v44.52h-4.69V39.99c0-1.29-1.05-2.34-2.34-2.34h-7.11v-7.03c0-1.29-1.05-2.34-2.34-2.34s-2.34,1.05-2.34,2.34v7.03H2.35c-1.3,0-2.35,1.05-2.35,2.34v38.43c0,.87,.7,1.57,1.57,1.57H78.42c.86,0,1.56-.7,1.56-1.57V39.99c0-1.29-1.04-2.34-2.34-2.34Zm-2.34,4.69v4.68h-4.77v-4.68h4.77Zm-4.77,14.06v-4.69h4.77v4.69h-4.77Zm4.77,4.68v4.69h-4.77v-4.69h4.77Zm-14.22-18.74h4.77v4.68h-4.77v-4.68Zm0,9.37h4.77v4.69h-4.77v-4.69Zm0,9.37h4.77v4.69h-4.77v-4.69Zm0,9.38h4.77v4.84h-4.77v-4.84Zm-18.74-37.34h4.69v4.53h-4.69v-4.53Zm0,9.22h4.69v4.68h-4.69v-4.68Zm0,9.37h4.69v4.69h-4.69v-4.69Zm0,9.37h4.69v4.69h-4.69v-4.69Zm0,9.38h4.69v4.84h-4.69v-4.84Zm-9.37-37.34h4.68v4.53h-4.68v-4.53Zm0,9.22h4.68v4.68h-4.68v-4.68Zm0,9.37h4.68v4.69h-4.68v-4.69Zm0,9.37h4.68v4.69h-4.68v-4.69Zm0,9.38h4.68v4.84h-4.68v-4.84Zm-18.83,4.84v-4.84h4.77v4.84h-4.77Zm4.77-14.22v4.69h-4.77v-4.69h4.77Zm-4.77-4.68v-4.69h4.77v4.69h-4.77Zm4.77-14.06v4.68h-4.77v-4.68h4.77Zm-14.22,0h4.77v4.68H4.69v-4.68Zm0,9.37h4.77v4.69H4.69v-4.69Zm0,9.37h4.77v4.69H4.69v-4.69Zm0,9.38h4.77v4.84H4.69v-4.84Zm65.84,4.84v-4.84h4.77v4.84h-4.77Z"/><path class="cls-1" d="M60.39,17.4c4.3-4.33,11.29-4.33,15.6,0,.91,.92,2.4,.92,3.31,.01,.92-.91,.92-2.4,.01-3.31-6.14-6.18-16.11-6.18-22.24,0-.91,.92-.91,2.4,.01,3.31,.92,.91,2.4,.91,3.31-.01Z"/><path class="cls-1" d="M63.37,20.44c-.91,.92-.91,2.4,.01,3.31,.92,.91,2.4,.91,3.31-.01,.83-.83,2.16-.83,2.98,0,.92,.92,2.4,.92,3.31,.01,.92-.91,.92-2.4,.01-3.31-2.66-2.68-6.97-2.68-9.63,0Z"/><path class="cls-1" d="M30.05,8.81c2.75-2.75,6.34-4.12,9.94-4.12s7.19,1.37,9.94,4.12c.92,.92,2.4,.92,3.31,0,.91-.91,.91-2.4,0-3.31-3.66-3.66-8.46-5.49-13.26-5.49s-9.59,1.83-13.26,5.49c-.92,.92-.92,2.4,0,3.31,.92,.92,2.4,.92,3.31,0Z"/><path class="cls-1" d="M33.37,12.12c-.92,.92-.92,2.4,0,3.31,.92,.92,2.4,.92,3.31,0,.91-.91,2.11-1.37,3.31-1.37s2.4,.46,3.31,1.37c.91,.92,2.4,.92,3.31,0,.92-.92,.92-2.4,0-3.31-1.83-1.83-4.23-2.74-6.63-2.74s-4.8,.91-6.63,2.74Z"/></g></g></svg>