<?xml version="1.0" encoding="UTF-8"?><svg id="Layer_2" xmlns="http://www.w3.org/2000/svg" viewBox="0 0 79.69 80"><metadata><?xpacket begin="﻿" id="W5M0MpCehiHzreSzNTczkc9d"?>
<x:xmpmeta xmlns:x="adobe:ns:meta/" x:xmptk="Adobe XMP Core 7.1-c000 79.4d2f597, 2021/09/01-20:51:22        ">
   <rdf:RDF xmlns:rdf="http://www.w3.org/1999/02/22-rdf-syntax-ns#">
      <rdf:Description rdf:about=""
            xmlns:xmpMM="http://ns.adobe.com/xap/1.0/mm/"
            xmlns:stEvt="http://ns.adobe.com/xap/1.0/sType/ResourceEvent#"
            xmlns:xmp="http://ns.adobe.com/xap/1.0/">
         <xmpMM:PreservedFileName>Asset 2272.svg</xmpMM:PreservedFileName>
         <xmpMM:InstanceID>xmp.iid:a4c5be78-aa24-0e4b-8e50-d637ceae796b</xmpMM:InstanceID>
         <xmpMM:DocumentID>xmp.did:a4c5be78-aa24-0e4b-8e50-d637ceae796b</xmpMM:DocumentID>
         <xmpMM:OriginalDocumentID>xmp.did:a4c5be78-aa24-0e4b-8e50-d637ceae796b</xmpMM:OriginalDocumentID>
         <xmpMM:History>
            <rdf:Seq>
               <rdf:li>
                  <rdf:Description>
                     <stEvt:action>saved</stEvt:action>
                     <stEvt:instanceID>xmp.iid:a4c5be78-aa24-0e4b-8e50-d637ceae796b</stEvt:instanceID>
                     <stEvt:when>2022-07-05T17:48:48+05:30</stEvt:when>
                     <stEvt:softwareAgent>Adobe Bridge 2022 (Windows)</stEvt:softwareAgent>
                     <stEvt:changed>/metadata</stEvt:changed>
                  </rdf:Description>
               </rdf:li>
            </rdf:Seq>
         </xmpMM:History>
         <xmp:MetadataDate>2022-07-05T17:48:48+05:30</xmp:MetadataDate>
      </rdf:Description>
   </rdf:RDF>
</x:xmpmeta>
                                                                                                    
                                                                                                    
                                                                                                    
                                                                                                    
                                                                                                    
                                                                                                    
                                                                                                    
                                                                                                    
                                                                                                    
                                                                                                    
                                                                                                    
                                                                                                    
                                                                                                    
                                                                                                    
                                                                                                    
                                                                                                    
                                                                                                    
                                                                                                    
                                                                                                    
                                                                                                    
                           
<?xpacket end="w"?></metadata>
<defs><style>.cls-1{fill:#fff;}</style></defs><g id="Icons"><g><path class="cls-1" d="M0,77.66c0,1.29,1.05,2.34,2.34,2.34H77.34c1.29,0,2.34-1.05,2.34-2.34v-7.34H0v7.34Z"/><circle class="cls-1" cx="11.72" cy="46.09" r="6.25"/><circle class="cls-1" cx="39.84" cy="46.09" r="6.25"/><circle class="cls-1" cx="67.97" cy="46.09" r="6.25"/><path class="cls-1" d="M0,65.62H23.44c0-4.39-2.41-8.21-5.99-10.22-1.67,1.03-3.63,1.63-5.73,1.63s-4.06-.6-5.73-1.63c-3.57,2.01-5.99,5.83-5.99,10.22Z"/><path class="cls-1" d="M28.12,65.62h23.44c0-4.39-2.41-8.21-5.99-10.22-1.67,1.03-3.63,1.63-5.73,1.63s-4.06-.6-5.73-1.63c-3.57,2.01-5.99,5.83-5.99,10.22Z"/><path class="cls-1" d="M73.7,55.4c-1.67,1.03-3.63,1.63-5.73,1.63s-4.06-.6-5.73-1.63c-3.57,2.01-5.99,5.83-5.99,10.22h23.44c0-4.39-2.41-8.21-5.99-10.22Z"/><circle class="cls-1" cx="11.72" cy="6.25" r="6.25"/><circle class="cls-1" cx="39.84" cy="6.25" r="6.25"/><circle class="cls-1" cx="67.97" cy="6.25" r="6.25"/><path class="cls-1" d="M17.45,15.56c-1.67,1.03-3.63,1.63-5.73,1.63s-4.06-.6-5.73-1.63C2.41,17.57,0,21.39,0,25.78H23.44c0-4.39-2.41-8.21-5.99-10.22Z"/><path class="cls-1" d="M45.58,15.56c-1.67,1.03-3.63,1.63-5.73,1.63s-4.06-.6-5.73-1.63c-3.57,2.01-5.99,5.83-5.99,10.22h23.44c0-4.39-2.41-8.21-5.99-10.22Z"/><path class="cls-1" d="M0,46.06c0,.45,.36,.81,.81,.81-.02-.26-.03-.52-.03-.78,0-6.03,4.91-10.94,10.94-10.94s10.94,4.91,10.94,10.94c0,.26-.01,.52-.03,.78h6.31c-.02-.26-.03-.52-.03-.78,0-6.03,4.91-10.94,10.94-10.94s10.94,4.91,10.94,10.94c0,.26-.01,.52-.03,.78h6.31c-.02-.26-.03-.52-.03-.78,0-6.03,4.91-10.94,10.94-10.94s10.94,4.91,10.94,10.94c0,.26-.01,.52-.03,.78,.45,0,.81-.36,.81-.81v-15.59H0v15.59Z"/><path class="cls-1" d="M73.7,15.56c-1.67,1.03-3.63,1.63-5.73,1.63s-4.06-.6-5.73-1.63c-3.57,2.01-5.99,5.83-5.99,10.22h23.44c0-4.39-2.41-8.21-5.99-10.22Z"/></g></g></svg>