<?xml version="1.0" encoding="UTF-8"?><svg id="Layer_2" xmlns="http://www.w3.org/2000/svg" viewBox="0 0 79.92 79.92"><metadata><?xpacket begin="﻿" id="W5M0MpCehiHzreSzNTczkc9d"?>
<x:xmpmeta xmlns:x="adobe:ns:meta/" x:xmptk="Adobe XMP Core 7.1-c000 79.4d2f597, 2021/09/01-20:51:22        ">
   <rdf:RDF xmlns:rdf="http://www.w3.org/1999/02/22-rdf-syntax-ns#">
      <rdf:Description rdf:about=""
            xmlns:xmpMM="http://ns.adobe.com/xap/1.0/mm/"
            xmlns:stEvt="http://ns.adobe.com/xap/1.0/sType/ResourceEvent#"
            xmlns:xmp="http://ns.adobe.com/xap/1.0/">
         <xmpMM:PreservedFileName>Asset 2462.svg</xmpMM:PreservedFileName>
         <xmpMM:InstanceID>xmp.iid:993cef6a-7829-0841-8a60-9bf532fc092c</xmpMM:InstanceID>
         <xmpMM:DocumentID>xmp.did:993cef6a-7829-0841-8a60-9bf532fc092c</xmpMM:DocumentID>
         <xmpMM:OriginalDocumentID>xmp.did:993cef6a-7829-0841-8a60-9bf532fc092c</xmpMM:OriginalDocumentID>
         <xmpMM:History>
            <rdf:Seq>
               <rdf:li>
                  <rdf:Description>
                     <stEvt:action>saved</stEvt:action>
                     <stEvt:instanceID>xmp.iid:993cef6a-7829-0841-8a60-9bf532fc092c</stEvt:instanceID>
                     <stEvt:when>2022-07-05T17:49:25+05:30</stEvt:when>
                     <stEvt:softwareAgent>Adobe Bridge 2022 (Windows)</stEvt:softwareAgent>
                     <stEvt:changed>/metadata</stEvt:changed>
                  </rdf:Description>
               </rdf:li>
            </rdf:Seq>
         </xmpMM:History>
         <xmp:MetadataDate>2022-07-05T17:49:25+05:30</xmp:MetadataDate>
      </rdf:Description>
   </rdf:RDF>
</x:xmpmeta>
                                                                                                    
                                                                                                    
                                                                                                    
                                                                                                    
                                                                                                    
                                                                                                    
                                                                                                    
                                                                                                    
                                                                                                    
                                                                                                    
                                                                                                    
                                                                                                    
                                                                                                    
                                                                                                    
                                                                                                    
                                                                                                    
                                                                                                    
                                                                                                    
                                                                                                    
                                                                                                    
                           
<?xpacket end="w"?></metadata>
<defs><style>.cls-1{fill:#fff;}</style></defs><g id="Icons"><g><path class="cls-1" d="M72.9,23.42H7.02c-3.88,0-7.02,3.13-7.02,7.02v19.05c0,3.88,3.14,7.02,7.02,7.02H72.9c3.88,0,7.02-3.14,7.02-7.02V30.44c0-3.89-3.14-7.02-7.02-7.02ZM23.41,44.8c0,1.3-1.04,2.34-2.34,2.34H11.71c-1.3,0-2.35-1.04-2.35-2.34v-9.68c0-1.29,1.05-2.34,2.35-2.34h9.36c1.3,0,2.34,1.05,2.34,2.34v9.68Zm9.37,0c0,1.3-1.05,2.34-2.34,2.34s-2.34-1.04-2.34-2.34v-9.68c0-1.29,1.04-2.34,2.34-2.34s2.34,1.05,2.34,2.34v9.68Zm28.41,0c0,1.3-1.05,2.34-2.34,2.34h-9.37c-1.29,0-2.34-1.04-2.34-2.34v-9.68c0-1.29,1.05-2.34,2.34-2.34h9.37c1.29,0,2.34,1.05,2.34,2.34v9.68Zm9.37,0c0,1.3-1.05,2.34-2.35,2.34s-2.34-1.04-2.34-2.34v-9.68c0-1.29,1.05-2.34,2.34-2.34s2.35,1.05,2.35,2.34v9.68Z"/><path class="cls-1" d="M7.02,58.51c-1.37,0-2.67-.31-3.83-.86-1.92,1.25-3.19,3.41-3.19,5.88,0,3.89,3.14,7.03,7.02,7.03h3c1.03-3.85,4.54-6.68,8.71-6.68s7.68,2.83,8.71,6.68h3c3.89,0,7.02-3.14,7.02-7.03,0-1.97-.81-3.75-2.11-5.02H7.02Z"/><path class="cls-1" d="M18.73,65.88c-3.07,0-5.66,1.95-6.62,4.68-.26,.73-.4,1.52-.4,2.34,0,3.89,3.29,7.02,7.18,7.02s6.87-3.13,6.87-7.02c0-.82-.14-1.61-.4-2.34-.96-2.73-3.56-4.68-6.63-4.68Z"/><path class="cls-1" d="M76.73,57.65c-1.16,.55-2.46,.86-3.83,.86h-28.32c-1.31,1.27-2.12,3.05-2.12,5.02,0,3.89,3.14,7.03,7.02,7.03h3c1.03-3.85,4.54-6.68,8.71-6.68s7.68,2.83,8.71,6.68h3c3.88,0,7.02-3.14,7.02-7.03,0-2.47-1.27-4.63-3.19-5.88Z"/><path class="cls-1" d="M61.19,65.88c-3.07,0-5.66,1.95-6.62,4.68-.26,.73-.4,1.52-.4,2.34,0,3.89,3.13,7.02,7.02,7.02s7.02-3.13,7.02-7.02c0-.82-.14-1.61-.4-2.34-.96-2.73-3.55-4.68-6.62-4.68Z"/><path class="cls-1" d="M3.19,22.28c1.16-.55,2.46-.86,3.83-.86h28.32c1.31-1.27,2.12-3.05,2.12-5.03,0-3.88-3.13-7.02-7.02-7.02h-3c-1.03,3.84-4.54,6.68-8.71,6.68s-7.68-2.84-8.71-6.68h-3c-3.88,0-7.02,3.14-7.02,7.02,0,2.47,1.27,4.64,3.19,5.89Z"/><path class="cls-1" d="M18.73,14.05c3.07,0,5.67-1.95,6.63-4.68,.26-.73,.4-1.52,.4-2.34,0-3.89-3.14-7.03-7.03-7.03s-7.02,3.14-7.02,7.03c0,.82,.14,1.61,.4,2.34,.96,2.73,3.55,4.68,6.62,4.68Z"/><path class="cls-1" d="M72.9,21.42c1.37,0,2.67,.31,3.83,.86,1.92-1.25,3.19-3.42,3.19-5.89,0-3.88-3.14-7.02-7.02-7.02h-3c-1.03,3.84-4.54,6.68-8.71,6.68s-7.68-2.84-8.71-6.68h-3c-3.88,0-7.02,3.14-7.02,7.02,0,1.98,.81,3.76,2.13,5.03h28.31Z"/><path class="cls-1" d="M61.19,14.05c3.07,0,5.66-1.95,6.62-4.68,.26-.73,.4-1.52,.4-2.34,0-3.89-3.13-7.03-7.02-7.03s-7.02,3.14-7.02,7.03c0,.82,.14,1.61,.4,2.34,.96,2.73,3.55,4.68,6.62,4.68Z"/></g></g></svg>