<?xml version="1.0" encoding="UTF-8"?><svg id="Layer_2" xmlns="http://www.w3.org/2000/svg" viewBox="0 0 80 80.17"><metadata><?xpacket begin="﻿" id="W5M0MpCehiHzreSzNTczkc9d"?>
<x:xmpmeta xmlns:x="adobe:ns:meta/" x:xmptk="Adobe XMP Core 7.1-c000 79.4d2f597, 2021/09/01-20:51:22        ">
   <rdf:RDF xmlns:rdf="http://www.w3.org/1999/02/22-rdf-syntax-ns#">
      <rdf:Description rdf:about=""
            xmlns:xmpMM="http://ns.adobe.com/xap/1.0/mm/"
            xmlns:stEvt="http://ns.adobe.com/xap/1.0/sType/ResourceEvent#"
            xmlns:xmp="http://ns.adobe.com/xap/1.0/">
         <xmpMM:PreservedFileName>Asset 2339.svg</xmpMM:PreservedFileName>
         <xmpMM:InstanceID>xmp.iid:ccc0dc7c-456a-b44c-881e-93cbcbd348f2</xmpMM:InstanceID>
         <xmpMM:DocumentID>xmp.did:ccc0dc7c-456a-b44c-881e-93cbcbd348f2</xmpMM:DocumentID>
         <xmpMM:OriginalDocumentID>xmp.did:ccc0dc7c-456a-b44c-881e-93cbcbd348f2</xmpMM:OriginalDocumentID>
         <xmpMM:History>
            <rdf:Seq>
               <rdf:li>
                  <rdf:Description>
                     <stEvt:action>saved</stEvt:action>
                     <stEvt:instanceID>xmp.iid:ccc0dc7c-456a-b44c-881e-93cbcbd348f2</stEvt:instanceID>
                     <stEvt:when>2022-07-05T17:49:04+05:30</stEvt:when>
                     <stEvt:softwareAgent>Adobe Bridge 2022 (Windows)</stEvt:softwareAgent>
                     <stEvt:changed>/metadata</stEvt:changed>
                  </rdf:Description>
               </rdf:li>
            </rdf:Seq>
         </xmpMM:History>
         <xmp:MetadataDate>2022-07-05T17:49:04+05:30</xmp:MetadataDate>
      </rdf:Description>
   </rdf:RDF>
</x:xmpmeta>
                                                                                                    
                                                                                                    
                                                                                                    
                                                                                                    
                                                                                                    
                                                                                                    
                                                                                                    
                                                                                                    
                                                                                                    
                                                                                                    
                                                                                                    
                                                                                                    
                                                                                                    
                                                                                                    
                                                                                                    
                                                                                                    
                                                                                                    
                                                                                                    
                                                                                                    
                                                                                                    
                           
<?xpacket end="w"?></metadata>
<defs><style>.cls-1{fill:#fff;}</style></defs><g id="Icons"><g><circle class="cls-1" cx="65.94" cy="52.05" r="9.38"/><circle class="cls-1" cx="14.06" cy="52.05" r="9.38"/><path class="cls-1" d="M65.94,61.42c-3.54,0-6.73,1.36-9.21,3.52,2.79,3.58,4.52,8.01,4.52,12.89v2.34h15.62c1.73,0,3.12-1.4,3.12-3.12v-1.56c0-7.75-6.31-14.06-14.06-14.06Z"/><path class="cls-1" d="M40,61.42c-9.05,0-16.41,7.36-16.41,16.41v2.34H56.41v-2.34c0-9.05-7.36-16.41-16.41-16.41Z"/><circle class="cls-1" cx="40" cy="49.7" r="11.72"/><path class="cls-1" d="M0,75.48v1.56c0,1.73,1.4,3.12,3.12,3.12h15.62v-2.34c0-4.88,1.73-9.31,4.52-12.89-2.47-2.16-5.67-3.52-9.21-3.52-7.75,0-14.06,6.31-14.06,14.06Z"/><path class="cls-1" d="M14.09,23.18v7.57c0,.93,.56,1.78,1.45,2.15,.89,.37,1.87,.19,2.53-.51l8.71-8.98h5.57l5.68,8.65c.47,.65,1.22,.98,1.97,.98s1.5-.33,1.97-.98l5.68-8.65h5.57l8.71,8.98c.66,.7,1.69,.88,2.53,.51,.89-.37,1.45-1.22,1.45-2.15v-7.57c5.34-1.08,9.37-5.81,9.37-11.48,0-6.46-5.25-11.7-11.71-11.7H16.43C9.97,0,4.72,5.24,4.72,11.7c0,5.67,4.03,10.4,9.37,11.48Zm7.02-13.82H58.89c1.31,0,2.34,1.03,2.34,2.34s-1.03,2.34-2.34,2.34H21.11c-1.31,0-2.34-1.03-2.34-2.34s1.03-2.34,2.34-2.34Z"/></g></g></svg>