<?xml version="1.0" encoding="UTF-8"?><svg id="Layer_2" xmlns="http://www.w3.org/2000/svg" viewBox="0 0 80 80"><metadata><?xpacket begin="﻿" id="W5M0MpCehiHzreSzNTczkc9d"?>
<x:xmpmeta xmlns:x="adobe:ns:meta/" x:xmptk="Adobe XMP Core 7.1-c000 79.4d2f597, 2021/09/01-20:51:22        ">
   <rdf:RDF xmlns:rdf="http://www.w3.org/1999/02/22-rdf-syntax-ns#">
      <rdf:Description rdf:about=""
            xmlns:xmpMM="http://ns.adobe.com/xap/1.0/mm/"
            xmlns:stEvt="http://ns.adobe.com/xap/1.0/sType/ResourceEvent#"
            xmlns:xmp="http://ns.adobe.com/xap/1.0/">
         <xmpMM:PreservedFileName>Asset 1151.svg</xmpMM:PreservedFileName>
         <xmpMM:InstanceID>xmp.iid:e80555bf-5102-514a-b453-156dbb48bfff</xmpMM:InstanceID>
         <xmpMM:DocumentID>xmp.did:e80555bf-5102-514a-b453-156dbb48bfff</xmpMM:DocumentID>
         <xmpMM:OriginalDocumentID>xmp.did:e80555bf-5102-514a-b453-156dbb48bfff</xmpMM:OriginalDocumentID>
         <xmpMM:History>
            <rdf:Seq>
               <rdf:li>
                  <rdf:Description>
                     <stEvt:action>saved</stEvt:action>
                     <stEvt:instanceID>xmp.iid:e80555bf-5102-514a-b453-156dbb48bfff</stEvt:instanceID>
                     <stEvt:when>2022-07-05T17:42:02+05:30</stEvt:when>
                     <stEvt:softwareAgent>Adobe Bridge 2022 (Windows)</stEvt:softwareAgent>
                     <stEvt:changed>/metadata</stEvt:changed>
                  </rdf:Description>
               </rdf:li>
            </rdf:Seq>
         </xmpMM:History>
         <xmp:MetadataDate>2022-07-05T17:42:02+05:30</xmp:MetadataDate>
      </rdf:Description>
   </rdf:RDF>
</x:xmpmeta>
                                                                                                    
                                                                                                    
                                                                                                    
                                                                                                    
                                                                                                    
                                                                                                    
                                                                                                    
                                                                                                    
                                                                                                    
                                                                                                    
                                                                                                    
                                                                                                    
                                                                                                    
                                                                                                    
                                                                                                    
                                                                                                    
                                                                                                    
                                                                                                    
                                                                                                    
                                                                                                    
                           
<?xpacket end="w"?></metadata>
<defs><style>.cls-1{fill:#fff;}</style></defs><g id="Icons"><g><path class="cls-1" d="M68.28,11.71C60.73,4.16,50.68,0,40,0S19.27,4.16,11.72,11.71C4.16,19.27,0,29.31,0,40s4.16,20.73,11.72,28.28c7.55,7.56,17.6,11.72,28.28,11.72s20.73-4.16,28.28-11.72c7.56-7.55,11.72-17.6,11.72-28.28s-4.16-20.73-11.72-28.29Zm-3.31,53.26c-6.67,6.67-15.54,10.35-24.97,10.35s-18.3-3.68-24.97-10.35c-6.67-6.67-10.35-15.54-10.35-24.97s3.68-18.3,10.35-24.98c6.67-6.67,15.54-10.34,24.97-10.34s18.3,3.67,24.97,10.34c6.67,6.68,10.35,15.54,10.35,24.98s-3.68,18.3-10.35,24.97Z"/><path class="cls-1" d="M40,13.9c1.3,0,2.36-1.06,2.36-2.36s-1.06-2.35-2.36-2.35-2.36,1.05-2.36,2.35,1.06,2.36,2.36,2.36Z"/><path class="cls-1" d="M40,66.11c-1.3,0-2.36,1.06-2.36,2.36s1.06,2.35,2.36,2.35,2.36-1.05,2.36-2.35-1.06-2.36-2.36-2.36Z"/><path class="cls-1" d="M11.64,37.64c-1.3,0-2.36,1.06-2.36,2.36s1.06,2.35,2.36,2.35,2.35-1.05,2.35-2.35-1.05-2.36-2.35-2.36Z"/><path class="cls-1" d="M68.25,37.64c-1.3,0-2.35,1.06-2.35,2.36s1.05,2.35,2.35,2.35,2.36-1.05,2.36-2.35-1.06-2.36-2.36-2.36Z"/><path class="cls-1" d="M41.92,33.4c-2.83-.81-5.76,.26-7.42,2.49l-14.97-4.35c-1.24-.36-2.54,.36-2.9,1.6-.36,1.24,.35,2.54,1.59,2.9l14.92,4.33c.06,1.01,.34,2.02,.84,2.94,.5,.9,1.17,1.66,1.98,2.25l-2.27,8.06c-.35,1.24,.37,2.53,1.62,2.88,.21,.06,.42,.09,.63,.09,1.02,0,1.96-.67,2.25-1.7l2.27-8.04c2.8-.19,5.31-2.09,6.14-4.94,.51-1.76,.3-3.61-.58-5.22s-2.34-2.78-4.1-3.29Zm.18,7.21c-.34,1.16-1.55,1.83-2.71,1.49-.56-.16-1.03-.54-1.31-1.05-.28-.51-.34-1.1-.18-1.66,.28-.96,1.15-1.58,2.1-1.58,.2,0,.41,.03,.61,.09,.56,.16,1.03,.53,1.31,1.04,.28,.52,.34,1.11,.18,1.67Z"/></g></g></svg>